<mxfile host="app.diagrams.net" agent="Mozilla/5.0 (Macintosh; Intel Mac OS X 10_15_7) AppleWebKit/537.36 (KHTML, like Gecko) Chrome/139.0.0.0 Safari/537.36" version="28.1.1">
  <diagram name="Page-1" id="W9Lpq7ZhKNP1yDNzv4qL">
    <mxGraphModel grid="1" page="1" gridSize="10" guides="1" tooltips="1" connect="1" arrows="1" fold="1" pageScale="1" pageWidth="740" pageHeight="250" math="0" shadow="0">
      <root>
        <mxCell id="0" />
        <mxCell id="1" parent="0" />
        <mxCell id="mSCudcnzQ3X7L2VV_jUv-1" value="&lt;font style=&quot;font-size: 24px;&quot;&gt;&lt;b&gt;Frontend&lt;/b&gt;&lt;/font&gt;&lt;div&gt;&lt;font style=&quot;font-size: 16px;&quot;&gt;&lt;br&gt;&lt;/font&gt;&lt;/div&gt;&lt;div&gt;&lt;b&gt;&lt;font data-font-src=&quot;https://fonts.googleapis.com/css?family=Roboto+Mono&quot; face=&quot;Roboto Mono&quot; style=&quot;font-size: 16px;&quot;&gt;my-app.com&lt;/font&gt;&lt;/b&gt;&lt;/div&gt;&lt;div&gt;&lt;font style=&quot;font-size: 16px;&quot;&gt;&lt;br&gt;&lt;/font&gt;&lt;/div&gt;&lt;div&gt;&lt;font style=&quot;font-size: 16px;&quot;&gt;Developed with&lt;/font&gt;&lt;/div&gt;&lt;div&gt;&lt;font style=&quot;font-size: 16px;&quot;&gt;React, Angular, Vue, etc.&lt;/font&gt;&lt;/div&gt;" style="whiteSpace=wrap;html=1;aspect=fixed;fillColor=#f5f5f5;strokeColor=#666666;rounded=1;gradientColor=#b3b3b3;fontFamily=Roboto;fontSource=https%3A%2F%2Ffonts.googleapis.com%2Fcss%3Ffamily%3DRoboto;" vertex="1" parent="1">
          <mxGeometry x="10" y="10" width="230" height="230" as="geometry" />
        </mxCell>
        <mxCell id="mSCudcnzQ3X7L2VV_jUv-2" value="&lt;font style=&quot;font-size: 24px;&quot;&gt;&lt;b&gt;Backend&lt;/b&gt;&lt;/font&gt;&lt;div&gt;&lt;font style=&quot;font-size: 16px;&quot;&gt;&lt;br&gt;&lt;/font&gt;&lt;/div&gt;&lt;div&gt;&lt;b&gt;&lt;font data-font-src=&quot;https://fonts.googleapis.com/css?family=Roboto+Mono&quot; face=&quot;Roboto Mono&quot; style=&quot;font-size: 16px;&quot;&gt;api.my-app.com&lt;/font&gt;&lt;/b&gt;&lt;/div&gt;&lt;div&gt;&lt;font face=&quot;Roboto Mono&quot;&gt;&lt;span style=&quot;font-size: 16px;&quot;&gt;or&lt;/span&gt;&lt;/font&gt;&lt;/div&gt;&lt;div&gt;&lt;font face=&quot;Roboto Mono&quot;&gt;&lt;span style=&quot;font-size: 16px;&quot;&gt;&lt;b&gt;my-app.com/services&lt;/b&gt;&lt;/span&gt;&lt;/font&gt;&lt;/div&gt;&lt;div&gt;&lt;font style=&quot;font-size: 16px;&quot;&gt;&lt;br&gt;&lt;/font&gt;&lt;/div&gt;&lt;div&gt;&lt;span style=&quot;font-size: 16px;&quot;&gt;Netuno platform&#39;s low-code&amp;nbsp;&lt;/span&gt;&lt;/div&gt;&lt;div&gt;&lt;span style=&quot;font-size: 16px;&quot;&gt;and polyglot services.&lt;/span&gt;&lt;/div&gt;" style="whiteSpace=wrap;html=1;aspect=fixed;rounded=1;fontFamily=Roboto;fontSource=https%3A%2F%2Ffonts.googleapis.com%2Fcss%3Ffamily%3DRoboto;fillColor=#dae8fc;gradientColor=#7ea6e0;strokeColor=#6c8ebf;" vertex="1" parent="1">
          <mxGeometry x="500" y="10" width="230" height="230" as="geometry" />
        </mxCell>
        <mxCell id="mSCudcnzQ3X7L2VV_jUv-3" value="" style="endArrow=classic;html=1;rounded=0;exitX=1;exitY=0.25;exitDx=0;exitDy=0;entryX=0;entryY=0.25;entryDx=0;entryDy=0;strokeWidth=4;strokeColor=light-dark(#000000,#808080);" edge="1" parent="1" source="mSCudcnzQ3X7L2VV_jUv-1" target="mSCudcnzQ3X7L2VV_jUv-2">
          <mxGeometry width="50" height="50" relative="1" as="geometry">
            <mxPoint x="340" y="180" as="sourcePoint" />
            <mxPoint x="390" y="130" as="targetPoint" />
          </mxGeometry>
        </mxCell>
        <mxCell id="mSCudcnzQ3X7L2VV_jUv-4" value="" style="endArrow=classic;html=1;rounded=0;exitX=1;exitY=0.75;exitDx=0;exitDy=0;entryX=0;entryY=0.75;entryDx=0;entryDy=0;strokeWidth=4;strokeColor=light-dark(#000000,#0066CC);" edge="1" parent="1" source="mSCudcnzQ3X7L2VV_jUv-1" target="mSCudcnzQ3X7L2VV_jUv-2">
          <mxGeometry width="50" height="50" relative="1" as="geometry">
            <mxPoint x="350" y="320" as="sourcePoint" />
            <mxPoint x="610" y="320" as="targetPoint" />
          </mxGeometry>
        </mxCell>
        <mxCell id="mSCudcnzQ3X7L2VV_jUv-6" value="" style="shape=image;html=1;verticalAlign=top;verticalLabelPosition=bottom;labelBackgroundColor=#ffffff;imageAspect=0;aspect=fixed;image=https://icons.diagrams.net/icon-cache1/Essentials-2479/030_-_Unlock-1258.svg" vertex="1" parent="1">
          <mxGeometry x="350" y="44" width="44" height="44" as="geometry" />
        </mxCell>
        <mxCell id="mSCudcnzQ3X7L2VV_jUv-7" value="" style="shape=image;html=1;verticalAlign=top;verticalLabelPosition=bottom;labelBackgroundColor=#ffffff;imageAspect=0;aspect=fixed;image=https://icons.diagrams.net/icon-cache1/Essentials-2479/008_-_Lock-1236.svg" vertex="1" parent="1">
          <mxGeometry x="350" y="159" width="44" height="44" as="geometry" />
        </mxCell>
        <mxCell id="mSCudcnzQ3X7L2VV_jUv-9" value="Public Services without JWT" style="text;html=1;align=center;verticalAlign=middle;whiteSpace=wrap;rounded=0;fontColor=light-dark(#000000,#808080);fontFamily=Roboto;fontSource=https%3A%2F%2Ffonts.googleapis.com%2Fcss%3Ffamily%3DRoboto;fontSize=17;" vertex="1" parent="1">
          <mxGeometry x="257" y="10" width="223" height="30" as="geometry" />
        </mxCell>
        <mxCell id="mSCudcnzQ3X7L2VV_jUv-10" value="Private Services with JWT" style="text;html=1;align=center;verticalAlign=middle;whiteSpace=wrap;rounded=0;fontColor=light-dark(#000000,#0066CC);fontFamily=Roboto;fontSource=https%3A%2F%2Ffonts.googleapis.com%2Fcss%3Ffamily%3DRoboto;fontSize=17;" vertex="1" parent="1">
          <mxGeometry x="260.5" y="204" width="223" height="30" as="geometry" />
        </mxCell>
      </root>
    </mxGraphModel>
  </diagram>
</mxfile>
